<?xml version="1.0" encoding="UTF-8"?>
<!DOCTYPE svg  PUBLIC '-//W3C//DTD SVG 1.1//EN'  'http://www.w3.org/Graphics/SVG/1.1/DTD/svg11.dtd'>
<svg width="509.28px" height="241.89px" enable-background="new 166.303 177.994 509.283 241.893" version="1.1" viewBox="166.303 177.994 509.283 241.893" xml:space="preserve" xmlns="http://www.w3.org/2000/svg">
<path d="m167.4 371.69l-1.101-16.6h2.3l4.101 9.6c3.5 5.399 8.399 8 14.499 8 8.2-0.101 12.8-4.9 12.8-11.8 0-7.899-6.5-11-15-13.8-9.6-3.399-17.299-7.399-17.299-17.6 0-9.699 8.1-17.999 20.899-17.999 5.5 0 9.899 1 13.399 2l4.3-1.4 0.3 18h-2.1l-7-14c-2.3-1.5-5.3-2.5-9.199-2.5-6.7 0-11.101 4.2-11.101 9.6 0 7.101 6.3 9.5 14.1 12.4 10.6 3.6 18.399 8.1 18.399 19.299 0 10.399-9.1 19.999-22.999 19.999-7.599 0.101-13.899-1.299-19.298-3.199z" fill="#fff"/>
<path d="m282.3 371.69c3-0.3 4.2-1 4.2-1.8v-55.198h-2.3c-9.2 0.3-14.5 6.999-17.3 13.399l-1.1 3.5h-2.6l2.499-18.899h55.099l1.3 18.799h-2.3l-1.1-3.399c-2.8-7-8-13.399-16.899-13.399h-2.5v55.498c0 0.8 0.7 1.1 5 1.5l3.8 0.399 0.3 1.601h-30.798l0.3-1.601 4.399-0.4z" fill="#fff"/>
<path d="m375.6 343.39c0-17.399 15.3-31.898 33.699-31.898 19.1 0 32.699 12.699 32.699 31.599 0 17.399-15.3 31.799-33.699 31.799-19.099 0.1-32.699-12.7-32.699-31.5zm52.398 0c0-18.999-7.899-29.799-19.6-29.799-12.1 0-19.199 9.6-19.199 29.399 0 19.1 7.8 29.799 19.8 29.799 11.999 1e-3 18.999-9.599 18.999-29.399z" fill="#fff"/>
<path d="m496.89 343.79c0-18.699 13.6-32.398 35.699-32.398 6.1 0 12.399 1.8 15.399 3.3l7-2 0.5 20.199h-2.5l-8.2-16.3c-2.6-1.7-6.8-2.899-12.199-2.899-14.1 0-22.1 12.6-22.1 29.299 0 18.199 9.2 29.799 21.899 29.799 8.899 0 14.1-3.899 18.399-10.899l3.6-8.5h2.601l-2.9 18.1h-4.1c-3.7 1.6-11.5 3.399-18.199 3.399-20.899-2e-3 -34.899-12.601-34.899-31.1z" fill="#fff"/>
<path d="m613.89 371.69c3.101-0.4 4.2-1 4.2-1.8v-53.698c0-0.7-0.5-1.2-5-1.5l-2.8-0.4-0.3-1.6h29.299l-0.3 1.6-4.1 0.4c-3.101 0.3-4.3 1.1-4.3 1.8v29.199l15.199-15.6c11.899-12.2 11.5-14.6 3.899-15.399l-2.999-0.4-0.2-1.6h26.099l-0.3 1.6-2.6 0.4c-6.4 0.8-8.7 3.199-20.1 14.899l-3.899 3.8 18.799 30.398c3.9 6.8 5.3 7.5 9 8l1.8 0.3 0.3 1.601h-28.399l0.2-1.601 1.9-0.399c4-0.5 4-1.9-0.4-9.6l-11.899-20-6.399 6.4v21.699c0 0.8 0.699 1.1 5.1 1.5l3.199 0.399 0.301 1.601h-29.3l0.301-1.601 3.699-0.398z" fill="#fff"/>
<path d="m286.2 407.49h4c1 0 1.899 0.1 2.8 0.3 0.899 0.2 1.6 0.6 2.3 1.1s1.2 1.101 1.5 1.9c0.399 0.8 0.6 1.699 0.6 2.8 0 1-0.2 1.8-0.6 2.6-0.4 0.7-0.9 1.4-1.5 1.9-0.601 0.5-1.3 0.899-2.2 1.199-0.8 0.301-1.7 0.4-2.6 0.4h-4.4v-12.199h0.1zm2.7 9.6h1.4c0.6 0 1.2-0.101 1.7-0.2s1-0.3 1.399-0.6c0.4-0.301 0.7-0.7 0.9-1.101 0.2-0.5 0.3-1 0.3-1.7 0-0.6-0.1-1.1-0.3-1.5-0.2-0.399-0.5-0.8-0.9-1.1-0.399-0.3-0.8-0.5-1.3-0.6-0.5-0.101-1-0.2-1.6-0.2h-1.601v7.001z" fill="#fff"/>
<path d="m322.2 414.89c0 0.7-0.101 1.4-0.301 2-0.199 0.6-0.5 1.1-1 1.6-0.399 0.4-1 0.8-1.6 1-0.6 0.3-1.399 0.4-2.2 0.4-0.8 0-1.6-0.101-2.199-0.4-0.601-0.3-1.2-0.6-1.601-1-0.399-0.399-0.7-1-1-1.6-0.2-0.6-0.3-1.3-0.3-2v-7.399h2.7v7.3c0 0.399 0.1 0.699 0.2 1 0.1 0.3 0.3 0.6 0.5 0.8 0.199 0.2 0.5 0.399 0.8 0.5 0.3 0.1 0.6 0.2 1 0.2 0.399 0 0.7-0.101 1-0.2 0.3-0.101 0.6-0.3 0.8-0.5s0.399-0.5 0.5-0.8c0.1-0.301 0.2-0.7 0.2-1v-7.3h2.699v7.399h-0.198z" fill="#fff"/>
<path d="m339.8 409.79h-3.5v-2.4h9.601v2.4h-3.5v9.699h-2.7v-9.699h0.099z" fill="#fff"/>
<path d="m368 410.59c-0.3-0.3-0.6-0.6-1-0.7-0.399-0.2-0.8-0.3-1.3-0.3s-1 0.1-1.399 0.3c-0.4 0.2-0.801 0.5-1.101 0.8-0.3 0.301-0.6 0.8-0.7 1.2-0.199 0.5-0.3 1-0.3 1.6 0 0.601 0.101 1.101 0.3 1.601 0.2 0.5 0.4 0.899 0.7 1.2 0.3 0.3 0.7 0.6 1.101 0.8 0.399 0.2 0.899 0.3 1.3 0.3 0.5 0 1-0.1 1.5-0.3 0.399-0.2 0.8-0.5 1-1l2.199 1.7c-0.5 0.699-1.199 1.199-1.899 1.6-0.7 0.399-1.601 0.5-2.4 0.5-0.899 0-1.8-0.101-2.6-0.4s-1.5-0.699-2.1-1.3c-0.601-0.6-1-1.2-1.4-2-0.3-0.8-0.5-1.7-0.5-2.6 0-1 0.2-1.8 0.5-2.6 0.3-0.801 0.8-1.5 1.4-2 0.6-0.601 1.3-1 2.1-1.3 0.8-0.301 1.7-0.4 2.6-0.4 0.3 0 0.7 0 1.101 0.1 0.399 0.101 0.699 0.2 1.1 0.301 0.4 0.1 0.7 0.3 1 0.5 0.3 0.199 0.6 0.499 0.9 0.8l-2.102 1.598z" fill="#fff"/>
<path d="m384.6 407.49h2.7v4.5h5.199v-4.5h2.7v12.1h-2.7v-5.2h-5.199v5.2h-2.7v-12.1z" fill="#fff"/>
<path d="m428.29 407.49h4c1 0 1.899 0.1 2.8 0.3s1.6 0.6 2.3 1.1 1.2 1.101 1.5 1.9c0.4 0.8 0.601 1.699 0.601 2.8 0 1-0.2 1.8-0.601 2.6-0.399 0.7-0.899 1.4-1.5 1.9-0.6 0.5-1.3 0.899-2.2 1.199-0.8 0.301-1.699 0.4-2.6 0.4h-4.399v-12.199h0.099zm2.6 9.6h1.4c0.6 0 1.2-0.101 1.7-0.2s1-0.3 1.399-0.6c0.4-0.301 0.7-0.7 0.9-1.101 0.2-0.5 0.3-1 0.3-1.7 0-0.6-0.1-1.1-0.3-1.5-0.2-0.399-0.5-0.8-0.9-1.1-0.399-0.3-0.8-0.5-1.3-0.6-0.5-0.101-1-0.2-1.6-0.2h-1.601v7.001z" fill="#fff"/>
<path d="m454.09 407.49h8.2v2.5h-5.6v2.3h5.199v2.5h-5.199v2.5h5.899v2.499h-8.5v-12.299z" fill="#fff"/>
<path d="m483.59 410.39c-0.199-0.3-0.5-0.5-0.899-0.6-0.4-0.101-0.7-0.2-1.1-0.2-0.2 0-0.4 0-0.601 0.1-0.2 0-0.399 0.101-0.6 0.2-0.2 0.101-0.3 0.2-0.4 0.4s-0.2 0.399-0.2 0.6c0 0.4 0.101 0.601 0.4 0.8 0.3 0.2 0.6 0.4 1 0.5 0.399 0.101 0.899 0.3 1.3 0.4 0.5 0.1 0.9 0.3 1.3 0.6s0.8 0.601 1 1c0.3 0.4 0.4 1 0.4 1.7s-0.101 1.3-0.4 1.8-0.6 0.9-1 1.2c-0.399 0.3-0.899 0.6-1.5 0.7-0.6 0.199-1.2 0.199-1.8 0.199-0.8 0-1.5-0.1-2.2-0.399-0.699-0.2-1.3-0.6-1.899-1.2l1.899-2.1c0.301 0.399 0.601 0.6 1 0.8 0.4 0.2 0.801 0.3 1.3 0.3 0.2 0 0.4 0 0.7-0.1 0.2-0.101 0.4-0.101 0.601-0.2 0.199-0.1 0.3-0.2 0.399-0.4 0.101-0.199 0.2-0.3 0.2-0.6 0-0.4-0.1-0.7-0.4-0.9-0.3-0.199-0.6-0.399-1.1-0.5-0.399-0.1-0.899-0.3-1.399-0.399-0.5-0.101-0.9-0.3-1.4-0.601-0.4-0.3-0.8-0.6-1.1-1-0.301-0.399-0.4-1-0.4-1.6 0-0.7 0.1-1.2 0.4-1.7s0.6-0.899 1-1.199c0.399-0.301 0.899-0.601 1.5-0.7 0.6-0.2 1.1-0.2 1.699-0.2 0.7 0 1.3 0.1 2 0.3 0.601 0.2 1.2 0.5 1.7 1l-1.4 1.999z" fill="#fff"/>
<path d="m500.19 407.49h2.7v12.1h-2.7v-12.1z" fill="#fff"/>
<path d="m528.99 418.69c-0.8 0.4-1.6 0.7-2.499 0.9-0.9 0.199-1.7 0.3-2.601 0.3-0.899 0-1.8-0.101-2.6-0.4s-1.5-0.7-2.1-1.3c-0.601-0.6-1-1.2-1.4-2-0.3-0.8-0.5-1.7-0.5-2.6 0-1 0.2-1.8 0.5-2.6 0.3-0.801 0.8-1.5 1.4-2 0.6-0.601 1.3-1 2.1-1.301 0.8-0.3 1.7-0.399 2.6-0.399 1 0 1.9 0.1 2.7 0.399 0.8 0.2 1.5 0.601 2.1 1.2l-1.899 2c-0.4-0.399-0.8-0.7-1.2-0.899-0.5-0.2-1-0.301-1.7-0.301-0.6 0-1.1 0.101-1.5 0.301-0.5 0.199-0.899 0.5-1.199 0.8-0.301 0.3-0.601 0.8-0.801 1.2-0.199 0.5-0.3 1-0.3 1.6s0.101 1.1 0.3 1.6c0.2 0.5 0.4 0.9 0.801 1.2 0.3 0.3 0.699 0.6 1.199 0.8s1 0.3 1.5 0.3c0.601 0 1.101-0.1 1.5-0.199 0.4-0.101 0.8-0.301 1-0.4v-2h-2.2v-2.5h4.7v6.3h0.099z" fill="#fff"/>
<path d="m544.19 407.49h3.6l5.1 8.399v-8.399h2.7v12.1h-3.5l-5.3-8.6v8.6h-2.7v-12.1h0.1z" fill="#fff"/>
<path d="m402.3 209.89v-31.699h-2.6v7.899h-3.2l-4.699-8.1-5.3 9 5.3 9 4.299-7.3h3.7v21.299c-3.399 0.3-6.499 1.7-8.899 4.2-2.7 2.699-4.2 6.399-4.2 10.199 0 3.9 1.5 7.5 4.2 10.2 2 2 4.399 3.3 7.1 3.899l-2.2 3.7 5.3 9 5.3-9-2.2-3.7c2.7-0.6 5.101-1.899 7.101-3.899 2.699-2.7 4.199-6.4 4.199-10.2 0-3.899-1.5-7.5-4.199-10.199-2.502-2.599-5.601-3.999-9.002-4.299zm-10.499-19.099l-2.301-3.899 2.301-3.9 2.3 3.9-2.3 3.899zm4.9 34.699l4.399-7.4 4.4 7.4-4.4 7.399-4.399-7.399zm-4.1 7.199c-2.2-2.2-3.5-5.199-3.5-8.399s1.2-6.2 3.5-8.399c1.899-1.9 4.399-3.101 7.1-3.4v2.8l-6 10.3 5.899 10-0.3 0.5c-2.5-0.402-4.8-1.602-6.699-3.402zm10.699 9.4l-2.3 3.9-2.3-3.9 2-3.399h0.3 0.3l2 3.399zm6.1-9.4c-1.8 1.8-4.199 3-6.699 3.3l-0.301-0.5 5.9-9.999-6-10.3v-2.8c2.7 0.3 5.2 1.5 7.1 3.399 2.2 2.2 3.5 5.2 3.5 8.399 0 3.201-1.2 6.201-3.5 8.501z" fill="#fff"/>
<path d="m447.59 187.49c-1.3 0-2.5 0.3-3.5 0.899 0.1-0.399 0.1-0.8 0.1-1.199 0-5-4.1-9.1-9.1-9.1s-9.1 4.1-9.1 9.1c0 0.399 0 0.8 0.1 1.199-1.1-0.5-2.199-0.899-3.499-0.899-4.3 0-7.7 3.5-7.7 7.699v1c0 5.601 5.1 10.1 11.399 10.1 2.9 0 5.6-0.999 7.6-2.6v5.2h-4.8v2.6h4.8v2.1h-4.8v2.601h4.8v34.799h12.8v-2.601h-10.3v-2.699h10.3v-2.601h-10.3v-2.699h10.3v-2.601h-10.3v-21.799h5.101v-2.6h-5.101v-2.101h5.101v-2.6h-5.101v-5.2c2.101 1.7 4.8 2.601 7.6 2.601 6.3 0 11.4-4.5 11.4-10.1v-1c-0.101-3.999-3.601-7.499-7.8-7.499zm-6-0.3c0 3.6-3 6.6-6.6 6.6-1.4 0-2.7-0.4-3.8-1.2 0 0 0.1 0 0.1-0.1l9.1-9.1c0.8 1.1 1.2 2.4 1.2 3.8zm-6.6-6.6c1.3 0 2.6 0.399 3.6 1.1l-9.1 9.1v0.1c-0.7-1-1.1-2.3-1.1-3.6 1e-3 -3.8 3-6.7 6.6-6.7zm-8.9 23.2c-4.899 0-8.799-3.4-8.799-7.5v-1c0-2.8 2.3-5.2 5.199-5.2 2.8 0 5.2 2.3 5.2 5.2 0 1.3-0.5 2.6-1.4 3.5-0.5 0.5-0.5 1.3 0.101 1.8 0.5 0.5 1.3 0.5 1.8-0.101 1.3-1.399 2.1-3.3 2.1-5.3v-0.3c1.101 0.7 2.3 1.101 3.6 1.3v3.8c-1.7 2.4-4.601 3.801-7.801 3.801zm26.699-7.5c0 4.199-4 7.5-8.8 7.5-3.199 0-6.1-1.5-7.6-3.801v-3.8c1.3-0.199 2.5-0.6 3.601-1.3v0.3c0 2 0.699 3.801 2.1 5.3 0.5 0.5 1.3 0.5 1.8 0.101 0.5-0.5 0.5-1.3 0.1-1.8-0.899-1-1.399-2.2-1.399-3.5 0-2.8 2.3-5.2 5.199-5.2 2.801 0 5.2 2.3 5.2 5.2v1h-0.201z" fill="#fff"/>
</svg>
