<?xml version="1.0" encoding="utf-8"?>
<!-- Generator: Adobe Illustrator 16.0.0, SVG Export Plug-In . SVG Version: 6.00 Build 0)  -->
<!DOCTYPE svg PUBLIC "-//W3C//DTD SVG 1.1//EN" "http://www.w3.org/Graphics/SVG/1.1/DTD/svg11.dtd">
<svg version="1.1" id="Layer_1" xmlns="http://www.w3.org/2000/svg" xmlns:xlink="http://www.w3.org/1999/xlink" x="0px" y="0px"
	 width="18.21px" height="23.405px" viewBox="9.253 0.612 18.21 23.405" enable-background="new 9.253 0.612 18.21 23.405"
	 xml:space="preserve">
<title>Asset 1</title>
<g id="Layer_2">
	<g id="Layer_1-2">
		<path fill="#FFFFFF" d="M17.187,0.69c-3.889,0.435-7.765,3.581-7.925,8.076c-0.1,2.745,0.679,4.804,3.291,5.382
			c1.134-1.999-0.365-2.441-0.599-3.888c-0.957-5.928,6.837-9.97,10.916-5.832c2.822,2.866,0.964,11.682-3.588,10.765
			c-4.36-0.875,2.135-7.892-1.347-9.27c-2.828-1.12-4.331,3.425-2.99,5.682c-0.785,3.883-2.479,7.542-1.793,12.411
			c2.223-1.612,2.973-4.703,3.588-7.925c1.117,0.678,1.714,1.385,3.14,1.494c5.258,0.406,8.194-5.249,7.477-10.466
			C26.718,2.495,22.102,0.142,17.187,0.69z"/>
	</g>
</g>
</svg>
