<?xml version="1.0" encoding="utf-8"?>
<!-- Generator: Adobe Illustrator 16.0.0, SVG Export Plug-In . SVG Version: 6.00 Build 0)  -->
<!DOCTYPE svg PUBLIC "-//W3C//DTD SVG 1.1//EN" "http://www.w3.org/Graphics/SVG/1.1/DTD/svg11.dtd">
<svg version="1.1" id="Layer_1" xmlns="http://www.w3.org/2000/svg" xmlns:xlink="http://www.w3.org/1999/xlink" x="0px" y="0px"
	 width="24px" height="24px" viewBox="11.92 0.017 24 24" enable-background="new 11.92 0.017 24 24" xml:space="preserve">
<title>Asset 1</title>
<path fill="#FFFFFF" d="M23.92,2.18c3.204,0,3.584,0.012,4.85,0.07c3.252,0.148,4.771,1.691,4.92,4.919
	c0.058,1.265,0.068,1.645,0.068,4.849c0,3.206-0.012,3.584-0.068,4.848c-0.149,3.227-1.664,4.771-4.92,4.92
	c-1.266,0.059-1.644,0.07-4.85,0.07c-3.204,0-3.584-0.012-4.849-0.07c-3.26-0.148-4.771-1.699-4.92-4.92
	c-0.058-1.266-0.069-1.645-0.069-4.849c0-3.204,0.013-3.583,0.069-4.849c0.149-3.227,1.664-4.771,4.92-4.919
	C20.337,2.192,20.716,2.18,23.92,2.18z M23.92,0.017c-3.259,0-3.667,0.014-4.946,0.072c-4.359,0.2-6.781,2.618-6.98,6.98
	c-0.059,1.281-0.073,1.689-0.073,4.948c0,3.259,0.015,3.667,0.071,4.947c0.201,4.359,2.619,6.781,6.98,6.98
	c1.281,0.059,1.689,0.072,4.948,0.072s3.668-0.014,4.947-0.072c4.355-0.199,6.783-2.617,6.98-6.98
	c0.059-1.279,0.072-1.688,0.072-4.947c0-3.259-0.014-3.667-0.072-4.947c-0.195-4.354-2.617-6.78-6.979-6.98
	C27.588,0.031,27.179,0.017,23.92,0.017z M23.92,5.855c-3.403,0-6.162,2.759-6.162,6.162c0,3.402,2.759,6.164,6.162,6.164
	c3.402,0,6.162-2.76,6.162-6.164C30.082,8.614,27.322,5.855,23.92,5.855z M23.92,16.017c-2.209,0-4-1.789-4-4c0-2.209,1.791-4,4-4
	s4,1.791,4,4C27.92,14.228,26.129,16.017,23.92,16.017z M30.326,4.172c-0.797,0-1.441,0.645-1.441,1.44
	c0,0.795,0.645,1.44,1.441,1.44c0.795,0,1.439-0.645,1.439-1.44C31.766,4.817,31.121,4.172,30.326,4.172z"/>
</svg>
