<?xml version="1.0" encoding="utf-8"?>
<!-- Generator: Adobe Illustrator 16.0.0, SVG Export Plug-In . SVG Version: 6.00 Build 0)  -->
<!DOCTYPE svg PUBLIC "-//W3C//DTD SVG 1.1//EN" "http://www.w3.org/Graphics/SVG/1.1/DTD/svg11.dtd">
<svg version="1.1" id="Layer_1" xmlns="http://www.w3.org/2000/svg" xmlns:xlink="http://www.w3.org/1999/xlink" x="0px" y="0px"
	 width="285.903px" height="41.328px" viewBox="246.469 71.012 285.903 41.328"
	 enable-background="new 246.469 71.012 285.903 41.328" xml:space="preserve">
<g>
	<polygon fill="black" points="274.268,98.507 274.266,98.507 260.374,84.761 274.242,71.012 260.339,71.012 246.469,84.766 
		253.427,91.669 260.371,98.507 267.318,105.383 	"/>
	<polygon fill="black" points="289.428,91.698 282.504,84.788 275.533,77.911 268.695,84.788 282.504,98.507 282.478,98.531 
		282.48,98.531 268.605,112.34 282.512,112.34 289.435,105.49 296.387,98.592 	"/>
	<path fill="black" d="M313.755,84.819c-2.082,0-3.729,0.692-4.934,2.083c-1.206,1.385-1.812,3.285-1.812,5.7
		c0,2.481,0.582,4.398,1.747,5.752c1.162,1.354,2.819,2.031,4.975,2.031c1.32,0,2.83-0.238,4.525-0.715v1.936
		c-1.315,0.49-2.937,0.738-4.865,0.738c-2.794,0-4.948-0.848-6.464-2.545c-1.518-1.693-2.276-4.102-2.276-7.224
		c0-1.954,0.363-3.667,1.095-5.137s1.786-2.603,3.165-3.399c1.378-0.794,3.004-1.191,4.87-1.191c1.989,0,3.728,0.362,5.214,1.089
		l-0.933,1.893C316.628,85.157,315.191,84.819,313.755,84.819"/>
	<path fill="black" d="M333.095,97.037c0,1.669-0.604,2.971-1.816,3.904c-1.21,0.934-2.854,1.4-4.929,1.4
		c-2.248,0-3.977-0.287-5.189-0.868v-2.126c0.779,0.328,1.628,0.586,2.545,0.777c0.914,0.189,1.823,0.284,2.724,0.284
		c1.47,0,2.575-0.279,3.319-0.836c0.743-0.559,1.115-1.334,1.115-2.33c0-0.656-0.13-1.193-0.396-1.614
		c-0.264-0.418-0.704-0.807-1.32-1.16c-0.62-0.355-1.562-0.759-2.822-1.206c-1.765-0.632-3.023-1.38-3.782-2.245
		c-0.756-0.863-1.135-1.993-1.135-3.385c0-1.463,0.55-2.625,1.647-3.489c1.1-0.863,2.55-1.298,4.359-1.298
		c1.886,0,3.618,0.348,5.2,1.038l-0.687,1.92c-1.565-0.656-3.088-0.987-4.566-0.987c-1.166,0-2.08,0.253-2.737,0.756
		c-0.655,0.498-0.985,1.195-0.985,2.087c0,0.656,0.123,1.193,0.363,1.613c0.242,0.42,0.65,0.804,1.225,1.157
		c0.577,0.35,1.456,0.736,2.641,1.159c1.99,0.71,3.359,1.47,4.105,2.284C332.721,94.685,333.095,95.741,333.095,97.037"/>
	<path fill="black" d="M347.673,97.037c0,1.669-0.604,2.971-1.816,3.904c-1.208,0.934-2.854,1.4-4.929,1.4
		c-2.248,0-3.977-0.287-5.188-0.868v-2.126c0.778,0.328,1.627,0.586,2.543,0.777c0.914,0.189,1.823,0.284,2.724,0.284
		c1.472,0,2.575-0.279,3.319-0.836c0.745-0.559,1.115-1.334,1.115-2.33c0-0.656-0.13-1.193-0.396-1.614
		c-0.264-0.418-0.703-0.807-1.32-1.16c-0.619-0.355-1.56-0.759-2.822-1.206c-1.765-0.632-3.022-1.38-3.782-2.245
		c-0.756-0.863-1.135-1.993-1.135-3.385c0-1.463,0.551-2.625,1.647-3.489c1.1-0.863,2.55-1.298,4.359-1.298
		c1.887,0,3.618,0.348,5.201,1.038l-0.688,1.92c-1.565-0.656-3.087-0.987-4.566-0.987c-1.166,0-2.079,0.253-2.735,0.756
		c-0.657,0.498-0.987,1.195-0.987,2.087c0,0.656,0.123,1.193,0.365,1.613c0.24,0.42,0.648,0.804,1.226,1.157
		c0.574,0.35,1.453,0.736,2.638,1.159c1.99,0.71,3.359,1.47,4.105,2.284C347.3,94.685,347.673,95.741,347.673,97.037"/>
	<path fill="black" d="M367.09,92.199c0,3.163-0.873,5.604-2.612,7.313c-1.745,1.713-4.193,2.568-7.349,2.568h-6.137V83.118h6.564
		c3.044,0,5.395,0.78,7.05,2.335C366.261,87.011,367.09,89.261,367.09,92.199 M361.771,92.381c0-1.74-0.343-3.028-1.03-3.866
		c-0.688-0.838-1.731-1.259-3.132-1.259h-1.493v10.626h1.142c1.558,0,2.697-0.455,3.424-1.359
		C361.408,95.623,361.771,94.24,361.771,92.381"/>
	<path fill="black" d="M377.285,102.342c-2.446,0-4.347-0.649-5.7-1.955c-1.354-1.297-2.031-3.15-2.031-5.555
		c0-2.482,0.627-4.388,1.883-5.712c1.254-1.33,3.042-1.995,5.367-1.995c2.214,0,3.925,0.578,5.13,1.732s1.811,2.816,1.811,4.988
		v2.258h-9.066c0.034,0.821,0.336,1.465,0.899,1.934c0.568,0.465,1.339,0.697,2.318,0.697c0.889,0,1.708-0.082,2.459-0.25
		c0.743-0.172,1.555-0.459,2.43-0.862v3.646c-0.797,0.405-1.618,0.685-2.464,0.84C379.473,102.264,378.459,102.342,377.285,102.342
		 M376.986,90.578c-0.598,0-1.094,0.188-1.497,0.563s-0.637,0.965-0.709,1.769h4.359c-0.02-0.709-0.219-1.273-0.603-1.698
		C378.15,90.789,377.635,90.578,376.986,90.578"/>
	<path fill="black" d="M397.959,97.568c0,1.572-0.534,2.764-1.608,3.564c-1.072,0.807-2.61,1.209-4.617,1.209
		c-1.091,0-2.036-0.059-2.841-0.176c-0.807-0.117-1.628-0.33-2.464-0.642v-4.06c0.785,0.347,1.647,0.631,2.586,0.854
		c0.94,0.224,1.776,0.341,2.51,0.341c1.104,0,1.647-0.253,1.647-0.754c0-0.26-0.153-0.49-0.462-0.695
		c-0.304-0.201-1.195-0.598-2.673-1.186c-1.354-0.554-2.294-1.181-2.83-1.888c-0.537-0.704-0.802-1.597-0.802-2.681
		c0-1.365,0.524-2.427,1.579-3.19c1.057-0.761,2.546-1.142,4.474-1.142c0.972,0,1.881,0.107,2.73,0.318
		c0.855,0.211,1.735,0.52,2.654,0.928l-1.376,3.268c-0.673-0.302-1.388-0.556-2.143-0.772c-0.749-0.211-1.361-0.316-1.84-0.316
		c-0.828,0-1.244,0.202-1.244,0.61c0,0.25,0.144,0.464,0.433,0.642c0.294,0.178,1.127,0.539,2.515,1.084
		c1.025,0.422,1.794,0.838,2.299,1.244c0.506,0.408,0.88,0.885,1.118,1.434C397.838,96.113,397.959,96.781,397.959,97.568"/>
	<path fill="black" d="M400.671,83.728c0-0.761,0.209-1.327,0.632-1.699c0.428-0.369,1.107-0.556,2.051-0.556
		c0.942,0,1.63,0.189,2.062,0.568c0.431,0.382,0.649,0.943,0.649,1.687c0,1.487-0.904,2.23-2.712,2.23
		C401.565,85.958,400.671,85.215,400.671,83.728 M405.871,102.084h-5.074V87.387h5.074V102.084z"/>
	<path fill="black" d="M423.273,87.385v2.452l-2.007,0.739c0.274,0.502,0.413,1.086,0.413,1.752c0,1.581-0.554,2.809-1.664,3.686
		c-1.11,0.872-2.768,1.307-4.977,1.307c-0.545,0-0.975-0.033-1.295-0.102c-0.122,0.224-0.183,0.438-0.183,0.635
		c0,0.252,0.204,0.444,0.609,0.578c0.406,0.133,0.938,0.201,1.595,0.201h2.439c3.295,0,4.942,1.388,4.942,4.162
		c0,1.791-0.763,3.184-2.289,4.178c-1.526,0.996-3.669,1.492-6.43,1.492c-2.08,0-3.688-0.35-4.815-1.045
		c-1.13-0.695-1.691-1.696-1.691-3.002c0-1.754,1.088-2.889,3.266-3.398c-0.452-0.192-0.841-0.498-1.174-0.922
		c-0.333-0.425-0.498-0.843-0.498-1.258c0-0.457,0.124-0.86,0.374-1.213c0.253-0.35,0.775-0.768,1.57-1.252
		c-0.759-0.338-1.361-0.864-1.794-1.581c-0.439-0.72-0.656-1.592-0.656-2.62c0-1.602,0.545-2.842,1.634-3.722
		c1.088-0.884,2.648-1.324,4.67-1.324c0.268,0,0.729,0.029,1.39,0.09c0.656,0.061,1.138,0.117,1.448,0.167H423.273z M412.2,103.91
		c0,0.416,0.224,0.752,0.674,1.01c0.452,0.252,1.05,0.379,1.803,0.379c1.229,0,2.211-0.154,2.952-0.457
		c0.736-0.309,1.108-0.705,1.108-1.191c0-0.387-0.227-0.66-0.673-0.823c-0.452-0.158-1.094-0.238-1.935-0.238h-1.982
		c-0.545,0-1.007,0.126-1.386,0.384C412.388,103.226,412.2,103.539,412.2,103.91 M413.795,92.199c0,1.504,0.522,2.257,1.572,2.257
		c0.48,0,0.854-0.187,1.12-0.56c0.265-0.369,0.396-0.93,0.396-1.674c0-1.521-0.508-2.281-1.516-2.281
		C414.317,89.941,413.795,90.691,413.795,92.199"/>
	<path fill="black" d="M434.782,102.084v-8.02c0-0.977-0.142-1.713-0.423-2.211c-0.28-0.498-0.734-0.744-1.356-0.744
		c-0.855,0-1.473,0.341-1.854,1.023c-0.379,0.684-0.571,1.856-0.571,3.519v6.433h-5.069V87.387h3.825l0.637,1.813h0.296
		c0.433-0.69,1.03-1.208,1.799-1.555c0.763-0.345,1.643-0.52,2.639-0.52c1.626,0,2.889,0.474,3.796,1.417
		c0.898,0.94,1.353,2.269,1.353,3.98v9.562H434.782z"/>
	<path fill="black" d="M456.077,102.084l-2.361-6.031h-7.596l-2.338,6.031h-2.23l7.498-19.043h1.852l7.46,19.043H456.077z
		 M453.03,94.064l-2.204-5.873c-0.286-0.744-0.58-1.657-0.882-2.739c-0.189,0.829-0.464,1.742-0.816,2.739l-2.233,5.873H453.03z"/>
	<path fill="black" d="M472.254,102.084l-2.607-8.342c-0.166-0.511-0.472-1.67-0.924-3.475h-0.102
		c-0.346,1.511-0.646,2.678-0.906,3.499l-2.686,8.318h-2.49l-3.881-14.215h2.26c0.919,3.569,1.613,6.289,2.095,8.157
		c0.477,1.867,0.753,3.125,0.821,3.776h0.106c0.093-0.495,0.246-1.132,0.457-1.917c0.214-0.78,0.398-1.4,0.554-1.859l2.605-8.157
		h2.335l2.544,8.157c0.481,1.487,0.812,2.738,0.984,3.747h0.104c0.034-0.312,0.126-0.79,0.277-1.438
		c0.152-0.648,1.054-4.139,2.706-10.465h2.231l-3.932,14.215H472.254z"/>
	<path fill="black" d="M490.048,102.084l-0.428-2.024h-0.103c-0.709,0.892-1.419,1.494-2.123,1.808
		c-0.705,0.318-1.585,0.475-2.64,0.475c-1.409,0-2.515-0.363-3.309-1.09c-0.803-0.727-1.203-1.759-1.203-3.1
		c0-2.873,2.296-4.375,6.889-4.516l2.41-0.074v-0.885c0-1.115-0.24-1.939-0.719-2.472c-0.479-0.53-1.249-0.794-2.304-0.794
		c-1.184,0-2.524,0.362-4.02,1.088l-0.663-1.647c0.702-0.379,1.47-0.678,2.306-0.894c0.831-0.219,1.667-0.326,2.508-0.326
		c1.694,0,2.95,0.376,3.769,1.127c0.814,0.753,1.226,1.958,1.226,3.619v9.705H490.048z M485.183,100.564
		c1.342,0,2.392-0.364,3.162-1.101c0.76-0.739,1.146-1.765,1.146-3.089V95.09l-2.155,0.093c-1.711,0.061-2.945,0.325-3.703,0.797
		c-0.753,0.474-1.133,1.205-1.133,2.199c0,0.78,0.236,1.37,0.705,1.776C483.679,100.361,484.337,100.564,485.183,100.564"/>
	<path fill="black" d="M502.564,87.606c0.632,0,1.197,0.054,1.698,0.158l-0.297,1.995c-0.588-0.128-1.107-0.194-1.56-0.194
		c-1.147,0-2.131,0.469-2.947,1.402c-0.819,0.934-1.228,2.097-1.228,3.489v7.628h-2.152V87.866h1.778l0.245,2.631h0.104
		c0.527-0.926,1.162-1.638,1.905-2.138S501.673,87.606,502.564,87.606"/>
	<path fill="black" d="M516.6,100.176h-0.117c-0.993,1.443-2.48,2.168-4.461,2.168c-1.859,0-3.308-0.637-4.34-1.91
		c-1.033-1.271-1.551-3.076-1.551-5.422c0-2.342,0.518-4.162,1.556-5.462c1.04-1.295,2.483-1.941,4.335-1.941
		c1.927,0,3.406,0.698,4.435,2.1h0.17l-0.093-1.025l-0.051-0.999v-5.783h2.153v20.18h-1.752L516.6,100.176z M512.291,100.538
		c1.473,0,2.537-0.398,3.198-1.198c0.66-0.802,0.993-2.092,0.993-3.871v-0.457c0-2.014-0.335-3.449-1.008-4.311
		c-0.666-0.862-1.74-1.292-3.208-1.292c-1.264,0-2.229,0.491-2.896,1.472c-0.673,0.982-1.006,2.367-1.006,4.158
		c0,1.818,0.333,3.188,0.996,4.111C510.026,100.076,511.003,100.538,512.291,100.538"/>
	<path fill="black" d="M532.372,98.205c0,1.322-0.496,2.343-1.48,3.06c-0.983,0.717-2.369,1.079-4.149,1.079
		c-1.886,0-3.356-0.299-4.411-0.896v-1.998c0.684,0.348,1.415,0.619,2.199,0.818c0.785,0.197,1.538,0.297,2.263,0.297
		c1.127,0,1.99-0.18,2.595-0.539c0.607-0.357,0.909-0.904,0.909-1.641c0-0.551-0.241-1.027-0.725-1.418
		c-0.476-0.395-1.414-0.861-2.804-1.396c-1.327-0.493-2.265-0.923-2.823-1.29c-0.555-0.369-0.97-0.787-1.244-1.252
		c-0.272-0.469-0.408-1.025-0.408-1.674c0-1.159,0.471-2.073,1.414-2.744c0.942-0.668,2.235-1.006,3.878-1.006
		c1.531,0,3.027,0.311,4.485,0.933l-0.763,1.752c-1.429-0.588-2.722-0.882-3.878-0.882c-1.021,0-1.789,0.16-2.309,0.479
		c-0.521,0.321-0.78,0.763-0.78,1.324c0,0.382,0.098,0.704,0.294,0.975c0.189,0.267,0.506,0.522,0.94,0.763
		c0.431,0.243,1.262,0.594,2.488,1.053c1.687,0.614,2.826,1.231,3.419,1.855C532.075,96.48,532.372,97.263,532.372,98.205"/>
</g>
</svg>
