<?xml version="1.0" encoding="utf-8"?>
<!-- Generator: Adobe Illustrator 16.0.0, SVG Export Plug-In . SVG Version: 6.00 Build 0)  -->
<!DOCTYPE svg PUBLIC "-//W3C//DTD SVG 1.1//EN" "http://www.w3.org/Graphics/SVG/1.1/DTD/svg11.dtd">
<svg version="1.1" id="Layer_1" xmlns="http://www.w3.org/2000/svg" xmlns:xlink="http://www.w3.org/1999/xlink" x="0px" y="0px"
	 width="94.803px" height="28.17px" viewBox="-25.166 42.555 94.803 28.17" enable-background="new -25.166 42.555 94.803 28.17"
	 xml:space="preserve">
<g>
	<rect x="41.841" y="58.792" fill="black" width="11.746" height="3.485"/>
	<path fill="black" d="M63.366,50.463h-1.451v-1.638c0-2.301-1.256-4.412-3.278-5.511c-0.915-0.497-1.949-0.76-2.992-0.76H36.647
		c-1.379,0-2.726,0.459-3.817,1.297c-0.744,0.528-1.37,1.219-1.82,2.01l-0.024,0.042l-0.023,0.043l-2.627,4.875
		c0,0-3.05-5.972-3.935-6.699c-1.14-0.984-2.589-1.523-4.098-1.523c-0.933,0-1.872,0.214-2.715,0.619
		c-1.634,0.786-2.538,2.227-3.309,3.923l-1.984,3.681l-2.407-4.726c-0.632-1.28-1.686-2.31-2.981-2.912
		c-0.85-0.411-1.792-0.629-2.733-0.629h-15.348c-1.043,0-2.077,0.263-2.992,0.76c-2.022,1.099-3.279,3.21-3.279,5.511v1.638h-1.45
		c-3.458,0-6.271,2.813-6.271,6.271s2.813,6.271,6.271,6.271h1.45v1.45c0,3.458,2.813,6.271,6.271,6.271s6.27-2.812,6.27-6.271
		v-1.45h5.569c1.205,0,2.332-0.342,3.289-0.934l2.455,4.818c0.123,0.275,0.266,0.543,0.428,0.8c1.132,1.86,3.174,3.012,5.358,3.012
		c0.933,0,1.872-0.214,2.715-0.62c1.529-0.734,2.858-1.976,3.536-3.566l1.783-3.983l2.222,4.36c0.122,0.273,0.265,0.54,0.426,0.795
		c1.132,1.863,3.174,3.015,5.359,3.015c0.933,0,1.871-0.214,2.714-0.619c1.434-0.689,2.548-1.909,3.122-3.375
		c0.937,2.286,3.186,3.9,5.805,3.9l15.77,0.005c3.458,0,6.27-2.699,6.27-6.157v-1.45h1.451c3.458,0,6.271-2.813,6.271-6.271
		S66.823,50.463,63.366,50.463z M63.366,58.792h-5.662v5.551c0,1.137-0.922,2.059-2.059,2.059c-0.239,0-15.77-0.006-15.77-0.006
		c-1.137,0-2.059-0.922-2.059-2.06V56.64h0.005c0.049-1.093,0.949-1.965,2.054-1.965h13.711v-3.79H37.761L30.251,64.82
		c-0.12,0.617-0.517,1.172-1.127,1.465c-0.287,0.139-0.59,0.204-0.889,0.204c-0.714,0-1.401-0.374-1.779-1.021
		c-0.076-0.116-0.141-0.239-0.192-0.366l-5.931-11.643l-6.001,11.383c-0.26,0.609-0.64,1.15-1.25,1.443
		c-0.287,0.139-0.59,0.204-0.889,0.204c-0.714,0-1.401-0.374-1.779-1.021c-0.077-0.116-0.141-0.239-0.192-0.367L2.98,50.885H-9.116
		v3.79h9.78c1.137,0,2.059,0.922,2.059,2.059c0,1.138-0.922,2.059-2.059,2.059h-9.78v5.662c0,1.138-0.922,2.06-2.059,2.06
		c-1.137,0-2.059-0.922-2.059-2.06v-5.662h-5.662c-1.137,0-2.059-0.921-2.059-2.059c0-1.137,0.922-2.059,2.059-2.059h5.662v-5.85
		l0,0c0-0.781,0.436-1.462,1.078-1.811c0.292-0.158,0.626-0.248,0.981-0.248H4.173c0.334,0,0.648,0.081,0.927,0.223
		c0.431,0.191,0.798,0.529,1.019,0.987l6.07,11.916l6.09-11.38c0.306-0.623,0.476-1.184,1.133-1.5
		c0.288-0.138,0.591-0.203,0.89-0.203c0.509,0,1.005,0.19,1.384,0.534c0.375,0.293,0.549,0.491,0.806,0.99l5.738,11.559
		l6.439-11.948c0.168-0.294,0.398-0.53,0.663-0.703c0.356-0.296,0.814-0.475,1.314-0.475h18.998c0.355,0,0.689,0.09,0.981,0.248
		c0.642,0.349,1.078,1.029,1.078,1.811l0,0v5.85h5.662c1.137,0,2.059,0.922,2.059,2.059C65.425,57.871,64.503,58.792,63.366,58.792z
		"/>
</g>
</svg>
