<?xml version="1.0" encoding="utf-8"?>
<!-- Generator: Adobe Illustrator 16.0.0, SVG Export Plug-In . SVG Version: 6.00 Build 0)  -->
<!DOCTYPE svg PUBLIC "-//W3C//DTD SVG 1.1//EN" "http://www.w3.org/Graphics/SVG/1.1/DTD/svg11.dtd">
<svg version="1.1" id="Layer_1" xmlns="http://www.w3.org/2000/svg" xmlns:xlink="http://www.w3.org/1999/xlink" x="0px" y="0px"
	 width="180px" height="28.595px" viewBox="0 75.766 180 28.595" enable-background="new 0 75.766 180 28.595" xml:space="preserve"
	>
<path id="logo-a1" fill="black" d="M0.766,89.17c0.638-3.319,3.574-5.617,7.66-5.617c4.723,0,8.425,2.042,8.425,8.425v11.873
	h-4.085l-0.511-2.554c-1.404,1.787-3.319,2.937-6.128,2.937c-3.447,0-6.127-2.17-6.127-6.128s3.574-6.511,8.553-6.511h3.319v-0.894
	c0-2.298-1.66-2.936-3.575-2.936c-1.404,0-2.809,0.51-3.447,2.298L0.766,89.17z M7.276,100.021c2.298,0,4.596-1.532,4.596-4.086
	v-0.383H8.681c-2.17-0.127-3.447,0.767-3.447,2.554C5.234,99,6,100.021,7.276,100.021z"/>
<path id="logo-a2" fill="black" d="M97.021,89.17c0.639-3.319,3.574-5.617,7.659-5.617c4.724,0,8.426,2.042,8.426,8.425v11.873
	h-4.085l-0.511-2.554c-1.404,1.787-3.319,2.937-6.128,2.937c-3.447,0-6.127-2.17-6.127-6.128s3.574-6.511,8.553-6.511h3.318v-0.894
	c0-2.298-1.658-2.936-3.574-2.936c-1.404,0-2.809,0.51-3.446,2.298L97.021,89.17z M103.531,100.021c2.299,0,4.596-1.532,4.596-4.086
	v-0.383h-3.318c-2.17,0-3.447,0.767-3.447,2.554C101.489,99,102.256,100.021,103.531,100.021z"/>
<path id="logo-r" fill="black" d="M117.574,103.979v-20.17h4.979v3.319c1.404-2.425,3.703-3.574,5.873-3.574
	c0.894,0,1.659,0.127,2.426,0.383l-0.895,4.596c-0.638-0.383-1.276-0.638-2.042-0.638c-2.937,0-5.362,2.426-5.362,8.809v7.149
	L117.574,103.979L117.574,103.979z"/>
<path id="logo-d" fill="black" d="M141.447,83.553c2.042,0,3.957,1.021,4.851,2.17v-9.958h4.979v28.212h-4.979v-2.043
	c-0.638,1.021-2.425,2.426-4.851,2.426c-6,0-9.064-4.213-9.064-10.34C132.383,87.894,135.447,83.553,141.447,83.553z
	 M142.213,100.021c2.553,0,4.596-2.17,4.596-6.128c0-3.958-2.043-6.127-4.596-6.127s-4.596,2.17-4.596,6.127
	C137.617,97.852,139.66,100.021,142.213,100.021z"/>
<path id="logo-s" fill="black" d="M169.148,86.745l-2.936,2.681c-0.894-1.277-2.298-1.788-3.319-1.788
	c-1.021,0-1.915,0.638-1.915,1.66c0,0.894,0.766,1.532,1.915,1.915c2.809,1.021,7.276,1.914,7.276,6.127
	c0,3.703-2.809,6.639-7.148,6.639c-4.213,0-7.021-2.936-7.915-5.361l3.958-2.17c0.766,1.914,2.042,3.318,4.084,3.318
	c1.532,0,2.554-0.766,2.554-2.17c0-1.66-2.554-2.043-4.979-3.064c-2.171-0.893-4.085-2.297-4.085-5.361s2.553-5.873,6.383-5.873
	C165.574,83.426,168,84.83,169.148,86.745z"/>
<polygon id="logo-w2" fill="black" points="66.255,83.809 62.681,97.724 59.234,83.809 54.638,83.809 51.319,97.724 
	48.511,89.681 48.127,90.574 46.596,95.809 49.149,103.979 53.489,103.979 56.936,90.957 60.383,103.979 64.851,103.979 
	71.234,83.809 "/>
<polygon id="logo-w3" fill="black" points="90.127,83.809 86.553,97.724 83.106,83.809 78.511,83.809 75.191,97.724 
	72.383,89.681 72,90.574 70.34,95.809 73.021,103.979 77.362,103.979 80.809,90.957 84.255,103.979 88.596,103.979 95.106,83.809 
	"/>
<path id="logo-w1" fill="black" d="M47.362,83.809l-6.383,20.043h-4.34l-3.447-12.895l-3.447,13.021h-4.34l-6.383-20.042H24
	l3.574,13.788l3.447-13.788h4.596l3.447,13.788l3.574-13.788L47.362,83.809L47.362,83.809z"/>
<path id="logo-p" fill="black" d="M176.681,97.469c1.915,0,3.319,1.404,3.319,3.318c0,1.915-1.404,3.319-3.319,3.319
	s-3.319-1.404-3.319-3.319C173.361,98.873,174.766,97.469,176.681,97.469z"/>
</svg>
